<?xml version="1.0" encoding="UTF-8"?>
<svg id="Lag_1" data-name="Lag 1" xmlns="http://www.w3.org/2000/svg" viewBox="0 0 676 676">
  <defs>
    <style>
      .cls-1 {
        fill: #2232ac;
      }
    </style>
  </defs>
  <path class="cls-1" d="M470.52,655.89v-233.82h60.8l24.04-120.14h-84.84v-28.42c0-7.08,1.52-8.06,2.17-8.48,2.22-1.44,8.59-3.85,26.27-3.85h52.04v-92.99l-6.5-5.91c-10.79-9.8-37.62-21.25-77.73-21.25-36.78,0-67.18,13.7-87.92,39.62-18.64,23.29-28.5,55.4-28.5,92.85v28.42h-64.38v120.14h64.38v233.82H80.48c-33.43,0-60.63-27.18-60.63-60.6V80.45c0-33.41,27.2-60.6,60.63-60.6h515.05c33.43,0,60.63,27.18,60.63,60.6v514.85c0,33.41-27.2,60.6-60.63,60.6h-125.01Z"/>
  <path class="cls-1" d="M595.52,39.7c22.49,0,40.78,18.28,40.78,40.75v514.85c0,22.47-18.29,40.75-40.78,40.75h-105.16v-194.12h57.23l6.38-31.91,16.1-80.45,9.5-47.49h-89.21v-.79c2.28-.15,5.11-.26,8.59-.26h71.89v-121.62l-13-11.81c-6.82-6.2-33.53-26.41-91.08-26.41-21.4,0-41.18,4.09-58.78,12.15-17.49,8.01-32.51,19.76-44.64,34.92-21.49,26.85-32.85,63.24-32.85,105.25v8.57h-64.38v159.84h64.38v194.12H80.48c-22.49,0-40.78-18.28-40.78-40.75V80.45c0-22.47,18.29-40.75,40.78-40.75h515.05M595.52,0H80.48C36.05,0,0,36.04,0,80.45v514.85c0,44.41,36.05,80.45,80.48,80.45h515.05c44.42,0,80.48-36.04,80.48-80.45V80.45C676,36.04,639.95,0,595.52,0h0ZM305.81,402.23v-80.45h64.38v-48.27c0-64.36,32.19-112.62,96.57-112.62,46.68,0,64.38,16.09,64.38,16.09v64.36h-32.19c-34.44,0-48.29,8.04-48.29,32.18v48.27h80.48l-16.1,80.45h-64.38v241.34h-80.48v-241.34h-64.38Z"/>
</svg>