<?xml version="1.0" encoding="UTF-8"?>
<svg id="Lag_1" data-name="Lag 1" xmlns="http://www.w3.org/2000/svg" viewBox="0 0 676 676">
  <defs>
    <style>
      .cls-1 {
        fill: #2232ac;
        stroke: #2232ac;
        stroke-miterlimit: 10;
      }
    </style>
  </defs>
  <path class="cls-1" d="M199.73,0C89.57,0,0,89.57,0,199.73v276.55c0,110.16,89.57,199.73,199.73,199.73h276.55c110.16,0,199.73-89.57,199.73-199.73V199.73C676,89.57,586.43,0,476.27,0H199.73ZM522.36,122.91c16.9,0,30.73,13.83,30.73,30.73s-13.83,30.73-30.73,30.73-30.73-13.83-30.73-30.73,13.83-30.73,30.73-30.73ZM338,169c93.26,0,169,75.74,169,169s-75.74,169-169,169-169-75.74-169-169,75.74-169,169-169ZM338,199.73c-76.2,0-138.27,62.07-138.27,138.27s62.07,138.27,138.27,138.27,138.27-62.07,138.27-138.27-62.07-138.27-138.27-138.27Z"/>
</svg>