<?xml version="1.0" encoding="UTF-8"?>
<svg id="Lag_1" data-name="Lag 1" xmlns="http://www.w3.org/2000/svg" viewBox="0 0 209 202.76">
  <defs>
    <style>
      .cls-1 {
        fill: #2232ac;
      }

      .cls-2 {
        fill: #8698e2;
      }
    </style>
  </defs>
  <path class="cls-1" d="M152.28,102.2v32.03h-2.1l-84.89-60.23c-3.94-2.61-6.83-3.31-12.09-3.31h-8.41v57.79H3V1.76h60.18c54.4,0,81.73,10.27,81.73,31.51,0,16.71-20.5,26.28-46.25,31.68l53.61,37.25ZM104.71,34.66c0-18.28-13.93-30.11-43.63-30.11h-16.29v62.32c5.26.7,15.24,1.04,19.97,1.04,24.7,0,39.95-15.14,39.95-33.25Z"/>
  <path class="cls-2" d="M93.41,162.14c-9.24,18.9-10.31,29.08-9.02,38.62h-20.84c11.82-16.43,18.91-28.43,32.87-52.75l39.53-70.33h.86l69.4,123.08h-37.17l-21.7-38.62h-53.93ZM94.92,159.18h50.92l-25.57-45.52-19.98,35.66c-1.93,3.45-3.87,6.74-5.37,9.86Z"/>
</svg>