<?xml version="1.0" encoding="UTF-8"?>
<svg id="Lag_1" data-name="Lag 1" xmlns="http://www.w3.org/2000/svg" viewBox="0 0 676 676">
  <defs>
    <style>
      .cls-1 {
        fill: #2232ac;
      }
    </style>
  </defs>
  <path class="cls-1" d="M160.95,656.15c-77.8,0-141.1-63.3-141.1-141.1V160.95c0-77.8,63.3-141.1,141.1-141.1h354.1c77.8,0,141.1,63.3,141.1,141.1v354.1c0,77.8-63.3,141.1-141.1,141.1H160.95ZM130.73,500.67c4.38,1.37,9,2.04,14.12,2.04h386.29c5.12,0,9.74-.67,14.12-2.04l23.4-7.31,2.7,2.69,1.22-3.92,3.99-1.25-2.74-2.74,7.3-23.35c1.37-4.38,2.04-9,2.04-14.13v-225.33c0-5.13-.67-9.75-2.04-14.13l-7.3-23.33,2.75-2.75-4-1.25-1.22-3.92-2.7,2.69-23.4-7.31c-4.38-1.37-9-2.03-14.12-2.03H144.86c-5.12,0-9.74.67-14.12,2.03l-23.38,7.31-2.71-2.71-1.23,3.94-3.99,1.25,2.74,2.74-7.3,23.35c-1.37,4.38-2.04,9-2.04,14.13v225.33c0,5.13.67,9.75,2.04,14.13l7.31,23.37-2.72,2.73,3.96,1.24,1.23,3.94,2.71-2.71,23.38,7.31Z"/>
  <path class="cls-1" d="M515.05,39.7c66.86,0,121.26,54.4,121.26,121.26v354.1c0,66.86-54.4,121.26-121.26,121.26H160.95c-66.86,0-121.26-54.4-121.26-121.26V160.95c0-66.86,54.4-121.26,121.26-121.26h354.1M87.55,168.03l-25.36,7.93,17.44,17.44-3.72,11.9c-1.95,6.24-2.94,12.98-2.94,20.04v225.33c0,7.06.99,13.8,2.94,20.04l3.73,11.93-17.4,17.42,25.31,7.91,7.91,25.32,17.42-17.4,11.93,3.73c6.24,1.95,12.98,2.94,20.05,2.94h386.29c7.06,0,13.81-.99,20.05-2.94l11.96-3.74,17.41,17.36,7.9-25.27,25.36-7.92-17.44-17.44,3.72-11.9c1.95-6.24,2.94-12.98,2.94-20.04v-225.33c0-7.06-.99-13.8-2.94-20.04l-3.71-11.88,17.46-17.45-25.4-7.94-7.9-25.27-17.41,17.36-11.96-3.74c-6.24-1.95-12.98-2.94-20.05-2.94H144.86c-7.06,0-13.81.99-20.05,2.94l-11.93,3.73-17.42-17.4-7.91,25.32M515.05,0H160.95C72.25,0,0,72.25,0,160.95v354.1c0,88.71,72.25,160.95,160.95,160.95h354.1c88.71,0,160.95-72.25,160.95-160.95V160.95C676,72.25,603.75,0,515.05,0h0ZM337.92,370.2c-15.65,0-31.3-5.96-43.21-17.87l-158.06-158.06c2.58-.8,5.31-1.13,8.2-1.13h386.29c2.9,0,5.63.33,8.2,1.13l-158.22,158.06c-11.91,11.91-27.56,17.87-43.21,17.87h0ZM562.2,458.87l-121.19-120.87,121.19-120.87c.8,2.58,1.13,5.31,1.13,8.2v225.33c0,2.9-.33,5.63-1.13,8.2h0ZM113.8,458.87c-.8-2.58-1.13-5.31-1.13-8.2v-225.33c0-2.9.33-5.63,1.13-8.2l121.03,120.87-121.03,120.87h0ZM337.84,402.38c23.98,0,47.8-9,65.98-27.19l14.49-14.49,121.03,121.03c-2.58.8-5.31,1.13-8.2,1.13H144.86c-2.9,0-5.63-.33-8.2-1.13l120.87-121.03,14.33,14.49c18.19,18.19,42.16,27.19,65.98,27.19h0Z"/>
</svg>